<svg xmlns="http://www.w3.org/2000/svg" viewBox="0 0 1600 900" role="img" aria-label="OpenClaw robot showcase">
  <defs>
    <linearGradient id="bg" x1="0" x2="1" y1="0" y2="1">
      <stop offset="0%" stop-color="#120a19"/>
      <stop offset="100%" stop-color="#4b1730"/>
    </linearGradient>
  </defs>
  <rect width="1600" height="900" fill="url(#bg)"/>
  <circle cx="240" cy="150" r="160" fill="#ffd166" opacity="0.09"/>
  <circle cx="1380" cy="160" r="220" fill="#ff8b6a" opacity="0.1"/>
  <text x="100" y="110" font-size="30" fill="#ffdabc" font-family="Avenir Next, PingFang SC, sans-serif" letter-spacing="4">CUTE ROBOT IDENTITY</text>
  <text x="100" y="184" font-size="72" font-weight="700" fill="#fff5ef" font-family="Avenir Next, PingFang SC, sans-serif">Four personalities, one dashboard.</text>

  <g transform="translate(110 280)">
    <g transform="translate(0 0)">
      <rect width="300" height="430" rx="34" fill="#1b101c" stroke="#ffd3b8" stroke-opacity="0.14"/>
      <circle cx="150" cy="150" r="92" fill="#ff835f"/>
      <rect x="84" y="98" width="132" height="96" rx="44" fill="#fff2ec"/>
      <circle cx="122" cy="144" r="14" fill="#452136"/>
      <circle cx="178" cy="144" r="14" fill="#452136"/>
      <rect x="118" y="176" width="64" height="12" rx="6" fill="#452136"/>
      <path d="M62 152c-28-18-48-10-60 16 28 0 44 12 64 30" fill="none" stroke="#ffcaa8" stroke-width="14" stroke-linecap="round"/>
      <path d="M238 152c28-18 48-10 60 16-28 0-44 12-64 30" fill="none" stroke="#ffcaa8" stroke-width="14" stroke-linecap="round"/>
      <text x="150" y="310" text-anchor="middle" font-size="30" fill="#fff3ea" font-family="Avenir Next, PingFang SC, sans-serif">Classic</text>
      <text x="150" y="352" text-anchor="middle" font-size="18" fill="#ffd7c0" font-family="Avenir Next, PingFang SC, sans-serif">balanced and friendly</text>
    </g>

    <g transform="translate(340 0)">
      <rect width="300" height="430" rx="34" fill="#1b101c" stroke="#ffd3b8" stroke-opacity="0.14"/>
      <circle cx="150" cy="150" r="92" fill="#ff9d4d"/>
      <rect x="84" y="98" width="132" height="96" rx="34" fill="#fff2ec"/>
      <circle cx="120" cy="146" r="12" fill="#452136"/>
      <circle cx="180" cy="146" r="12" fill="#452136"/>
      <rect x="116" y="176" width="68" height="10" rx="5" fill="#452136"/>
      <rect x="102" y="54" width="18" height="54" rx="9" fill="#ffd7bf"/>
      <rect x="180" y="54" width="18" height="54" rx="9" fill="#ffd7bf"/>
      <circle cx="111" cy="46" r="14" fill="#ffd166"/>
      <circle cx="189" cy="46" r="14" fill="#ffd166"/>
      <text x="150" y="310" text-anchor="middle" font-size="30" fill="#fff3ea" font-family="Avenir Next, PingFang SC, sans-serif">Scout</text>
      <text x="150" y="352" text-anchor="middle" font-size="18" fill="#ffd7c0" font-family="Avenir Next, PingFang SC, sans-serif">alert and active</text>
    </g>

    <g transform="translate(680 0)">
      <rect width="300" height="430" rx="34" fill="#1b101c" stroke="#ffd3b8" stroke-opacity="0.14"/>
      <circle cx="150" cy="150" r="92" fill="#f58b8f"/>
      <rect x="82" y="102" width="136" height="92" rx="46" fill="#fff2ec"/>
      <circle cx="122" cy="144" r="13" fill="#452136"/>
      <circle cx="178" cy="144" r="13" fill="#452136"/>
      <path d="M122 178c18 14 38 14 56 0" fill="none" stroke="#452136" stroke-width="8" stroke-linecap="round"/>
      <circle cx="100" cy="176" r="12" fill="#ffd7da"/>
      <circle cx="200" cy="176" r="12" fill="#ffd7da"/>
      <text x="150" y="310" text-anchor="middle" font-size="30" fill="#fff3ea" font-family="Avenir Next, PingFang SC, sans-serif">Soft</text>
      <text x="150" y="352" text-anchor="middle" font-size="18" fill="#ffd7c0" font-family="Avenir Next, PingFang SC, sans-serif">gentle and approachable</text>
    </g>

    <g transform="translate(1020 0)">
      <rect width="300" height="430" rx="34" fill="#1b101c" stroke="#ffd3b8" stroke-opacity="0.14"/>
      <circle cx="150" cy="150" r="92" fill="#ff814f"/>
      <rect x="84" y="98" width="132" height="96" rx="34" fill="#fff2ec"/>
      <rect x="102" y="54" width="96" height="24" rx="10" fill="#ffd166"/>
      <path d="M114 54l18-24 18 24 18-24 18 24" fill="#ffd166"/>
      <circle cx="120" cy="144" r="14" fill="#452136"/>
      <circle cx="180" cy="144" r="14" fill="#452136"/>
      <rect x="110" y="174" width="80" height="14" rx="7" fill="#452136"/>
      <text x="150" y="310" text-anchor="middle" font-size="30" fill="#fff3ea" font-family="Avenir Next, PingFang SC, sans-serif">Boss</text>
      <text x="150" y="352" text-anchor="middle" font-size="18" fill="#ffd7c0" font-family="Avenir Next, PingFang SC, sans-serif">bold and commanding</text>
    </g>
  </g>
</svg>
